<svg xmlns="http://www.w3.org/2000/svg" width="22.399" height="22.395" viewBox="0 0 22.399 22.395"><defs><style>.a{fill:#fff;}</style></defs><g transform="translate(0 -0.05)"><g transform="translate(0 0.05)"><path class="a" d="M194.367,8.864V5.685l-1.658-.414a4.669,4.669,0,0,0-.216-.511l.882-1.468-2.249-2.249-1.468.882c-.172-.079-.344-.154-.511-.216L188.732.05h-3.179l-.414,1.658a4.67,4.67,0,0,0-.511.216l-1.468-.882L180.91,3.291l.882,1.468c-.079.172-.154.344-.216.511l-1.658.414V7.343H179.9v.723h.018v.8l1.658.414a4.667,4.667,0,0,0,.216.511l-.882,1.468,2.249,2.249,1.468-.882c.172.079.344.154.511.216l.414,1.658h.8v.018h.723V14.5h1.658l.414-1.658a4.669,4.669,0,0,0,.511-.216l1.468.882,2.249-2.249-.882-1.468c.079-.172.154-.344.216-.511Zm-1.9,2.284L191.016,12.6l-1.327-.794-.181.093a5.339,5.339,0,0,1-.78.326l-.19.062-.375,1.495H187.07v-.018h-.723v.018h-.234l-.375-1.495-.19-.062a5.546,5.546,0,0,1-.78-.326l-.181-.093-1.327.794-1.451-1.451.794-1.327-.093-.181a5.292,5.292,0,0,1-.326-.776l-.062-.19L180.628,8.3V8.066h.018V7.343h-.018V6.25l1.495-.375.062-.19a5.292,5.292,0,0,1,.326-.776l.093-.181L181.809,3.4,183.26,1.95l1.327.794.181-.093a5.5,5.5,0,0,1,.776-.326l.19-.062.375-1.495h2.05l.375,1.495.19.062a5.548,5.548,0,0,1,.78.326l.181.093,1.327-.794L192.467,3.4l-.794,1.327.093.181a5.5,5.5,0,0,1,.326.776l.062.19,1.495.375V8.3l-1.495.375-.062.19a5.1,5.1,0,0,1-.326.776l-.093.181Z" transform="translate(-171.968 -0.05)"/><rect class="a" width="0.758" height="0.723" transform="translate(7.932 20.164)"/><rect class="a" width="0.758" height="0.723" transform="translate(3.748 18.118) rotate(45)"/><rect class="a" width="0.723" height="0.758" transform="translate(1.512 13.713)"/><rect class="a" width="0.723" height="0.758" transform="translate(12.871 18.113) rotate(45)"/><rect class="a" width="0.758" height="0.723" transform="translate(3.235 9.555) rotate(-45)"/><path class="a" d="M16.345,147.249l-.176-.7-2.019.5-.062.19a6.113,6.113,0,0,1-.379.908l-.093.181.926,1.548L12.8,151.623l-1.548-.926-.181.093a6.118,6.118,0,0,1-.908.379l-.19.062-.437,1.746H7.077l-.437-1.746-.19-.062a5.928,5.928,0,0,1-.908-.379l-.181-.093-1.548.926-1.742-1.742L3,148.334l-.093-.181a6.315,6.315,0,0,1-.379-.908l-.062-.19-1.746-.437v-2.465l1.746-.437.062-.19a6.115,6.115,0,0,1,.379-.908L3,142.443,2.072,140.9l1.742-1.742,1.548.926.181-.093a6.116,6.116,0,0,1,.908-.379l.19-.062.5-2.019-.7-.176-.41,1.631a6.215,6.215,0,0,0-.644.269L3.7,138.236l-2.54,2.54,1.014,1.689c-.1.216-.194.432-.269.644l-1.9.481v3.594l1.9.476a6.217,6.217,0,0,0,.269.644L1.16,149.992l2.544,2.54,1.689-1.014a6.657,6.657,0,0,0,.644.269l.476,1.9h3.594l.476-1.9a6.225,6.225,0,0,0,.644-.269l1.689,1.014,2.54-2.54L14.441,148.3c.1-.216.194-.432.269-.644Z" transform="translate(0 -131.296)"/><path class="a" d="M90.033,218.169l-.053-.719a4.522,4.522,0,1,0,4.85,4.855l-.719-.053a3.8,3.8,0,1,1-4.079-4.083Z" transform="translate(-82.017 -207.864)"/><path class="a" d="M257.973,73.75a3.973,3.973,0,1,0,3.973,3.973A3.976,3.976,0,0,0,257.973,73.75Zm0,7.227a3.25,3.25,0,1,1,3.25-3.25A3.253,3.253,0,0,1,257.973,80.977Z" transform="translate(-242.8 -70.5)"/></g></g></svg>